<?xml version="1.0" encoding="utf-8"?>
<!-- Generator: Adobe Illustrator 27.5.0, SVG Export Plug-In . SVG Version: 6.00 Build 0)  -->
<svg version="1.1" xmlns="http://www.w3.org/2000/svg" xmlns:xlink="http://www.w3.org/1999/xlink" x="0px" y="0px"
	 viewBox="0 0 640 480" style="enable-background:new 0 0 640 480;" xml:space="preserve">
<style type="text/css">
	.st0{fill:none;stroke:#FFF000;stroke-width:3;stroke-miterlimit:10;}
	.st1{fill:none;stroke:#FFF000;stroke-width:2;stroke-miterlimit:10;}
	.st2{fill:#FFFFFF;stroke:#FFF000;stroke-width:2;stroke-miterlimit:10;}
	.st3{fill:#FFF000;stroke:#FFF000;stroke-width:2;stroke-miterlimit:10;}
</style>
<g id="Layer_1">
</g>
<g id="Can_Body">
</g>
<g id="Face">
	<g>
		<path class="st0" d="M381.37,352.83l0,1.99c0,6.45-25.74,11.67-57.5,11.67s-57.5-5.23-57.5-11.67v-1.76"/>
		<line class="st0" x1="254.33" y1="225.37" x2="254.07" y2="156.7"/>
		<path class="st0" d="M254.49,267.81l0.29,75.54c0,3.6,4.27,6.93,11.59,9.71c12.34,4.68,33.35,7.76,57.2,7.76
			c24.24,0,45.54-3.18,57.8-7.99c6.96-2.73,11-5.99,11-9.48l0.7-188.2"/>
		<g>
			<path class="st0" d="M270.93,127.5l-16.85,29.2c0,11.05,31.12,20,69.5,20s69.35-9.15,69.35-20.2l-16-29"/>
			<path class="st0" d="M376.93,128.5c0,8.56-23.73,15-53,15s-53-6.44-53-15"/>
		</g>
		<ellipse class="st0" cx="323.93" cy="129" rx="53" ry="15.5"/>
		<g id="Left_Eye">
			<path class="st1" d="M272.43,216.5c-7.08,0-13.48,3.39-18.1,8.87c-4.58,5.42-7.4,12.89-7.4,21.13c0,8.34,2.89,15.88,7.56,21.31
				c4.6,5.37,10.93,8.69,17.94,8.69c14.08,0,25.5-13.43,25.5-30S286.51,216.5,272.43,216.5z M278.43,274.5c-6.35,0-11.5-8.5-11.5-19
				c0-10.49,5.15-19,11.5-19c6.35,0,11.5,8.51,11.5,19C289.93,266,284.78,274.5,278.43,274.5z"/>
			<ellipse class="st2" cx="278.43" cy="255.5" rx="11.5" ry="19"/>
			<ellipse class="st3" cx="278.43" cy="255.5" rx="11.5" ry="19"/>
		</g>
		<g id="Right_Eye">
			<ellipse class="st1" cx="340.43" cy="254.5" rx="25.5" ry="30"/>
			<ellipse class="st3" cx="346.43" cy="263.5" rx="11.5" ry="19"/>
		</g>
		<path id="Mouth" class="st1" d="M276.93,290.5c-0.61,5.49,10.08,11.29,24.9,12.94c14.82,1.65,26.49-1.45,27.1-6.94h1l-54-6"/>
	</g>
</g>
</svg>
